<svg width="138" height="43" viewBox="0 0 138 43" fill="none" xmlns="http://www.w3.org/2000/svg">
<path d="M45.0187 15.1455H39.0078V33.3635H45.0187C49.9827 33.3635 53.5822 29.5469 53.5822 24.2871C53.5822 19.0273 50.1396 15.1412 45.0187 15.1455ZM50.6807 24.2654C50.6807 28.095 48.3869 30.5684 44.9403 30.5684H41.9094V17.9362H44.9403C48.4928 17.9362 50.6807 20.314 50.6807 24.2654Z" fill="#007F41"/>
<path d="M66.6755 23.935C67.7765 23.1265 68.4997 21.5138 68.4997 19.8185C68.4997 16.8886 66.326 15.1412 62.6897 15.1455H56.0117V33.3635H62.8102C66.9206 33.3635 69.3716 31.4161 69.3716 28.1602C69.3716 26.2085 68.4917 24.8261 66.6795 23.935M61.5847 22.6222C61.0383 22.7657 60.7088 23.1265 60.6244 23.6786C60.5601 24.1002 60.6485 24.5436 60.8615 24.8653C61.0342 25.1217 61.2713 25.2869 61.5445 25.3347C61.9302 25.4043 62.3562 25.426 62.8022 25.4478C64.1281 25.513 65.5304 25.5738 66.1572 26.8475C66.5268 27.6038 66.4746 28.5862 66.0206 29.2948C65.5545 30.0294 64.6304 30.4728 63.2843 30.5598C63.1115 30.5684 62.9347 30.5771 62.7419 30.5771H58.9931V17.9449H62.3883C64.6263 17.9449 65.5304 18.6405 65.5304 20.1184C65.5304 20.9313 65.2451 21.679 64.6786 22.118C64.1683 22.5179 63.429 22.5266 62.7138 22.5353C62.3963 22.5397 61.9423 22.5484 61.5887 22.6266L61.5847 22.6222Z" fill="#007F41"/>
<path d="M14.6531 18.0913C13.5469 17.1332 12.2042 16.3461 10.5828 15.8094C9.76788 15.5391 8.42517 15.1455 7.28092 15.1455C6.29712 15.1455 5.45687 15.4397 5.24575 16.362C4.83619 18.1231 5.03041 33.2494 5.17397 34.9986C5.27531 36.2866 5.84955 37.038 7.45404 37.0062C18.6263 36.8352 21.5567 24.0901 14.6531 18.0913Z" fill="url(#paint0_linear_2706_13635)"/>
<path d="M26.262 5.61818C25.3604 4.7662 24.2495 4.06595 22.9332 3.59133C22.2636 3.34624 21.168 3 20.2321 3C19.4218 3 18.737 3.26843 18.5582 4.0854C18.2272 5.64542 18.3832 19.0865 18.5011 20.6465C18.5886 21.7825 19.0566 22.4516 20.3653 22.4321C29.5071 22.2765 31.9038 10.9479 26.262 5.62207V5.61818Z" fill="url(#paint1_linear_2706_13635)"/>
<path d="M31.3322 18.58C30.1295 17.4623 28.6444 16.5396 26.8929 15.9218C25.9969 15.6007 24.532 15.1455 23.289 15.1455C22.2114 15.1455 21.2913 15.491 21.0572 16.5681C20.6092 18.6166 20.8231 36.2606 20.9805 38.305C21.0976 39.8089 21.715 40.6746 23.4625 40.6502C35.6464 40.4551 38.8507 25.5831 31.3281 18.58H31.3322Z" fill="url(#paint2_linear_2706_13635)"/>
<path d="M73.0879 32.55V15.6527H76.1189V22.6786H84.3981V15.6527H87.441V32.55H84.3981V25.2197H76.1189V32.55H73.0879Z" fill="#007F41"/>
<path d="M90.6135 32.55V20.0088H93.5501V32.55H90.6135ZM92.0877 18.1118C91.6238 18.1118 91.2268 17.9517 90.8965 17.6317C90.5742 17.3116 90.413 16.9291 90.413 16.4841C90.413 16.0235 90.5742 15.6371 90.8965 15.3248C91.2268 15.0048 91.6238 14.8447 92.0877 14.8447C92.5516 14.8447 92.9447 15.0048 93.2671 15.3248C93.5895 15.6371 93.7506 16.0235 93.7506 16.4841C93.7506 16.9291 93.5895 17.3116 93.2671 17.6317C92.9447 17.9517 92.5516 18.1118 92.0877 18.1118Z" fill="#007F41"/>
<path d="M100.485 32.55V18.1937H95.3428V15.6527H108.658V18.1937H103.516V32.55H100.485Z" fill="#007F41"/>
<path d="M113.576 32.7959C112.318 32.7959 111.237 32.5344 110.333 32.0114C109.429 31.4805 108.733 30.7311 108.245 29.7631C107.758 28.7873 107.514 27.6358 107.514 26.3087V26.297C107.514 24.9855 107.758 23.8379 108.245 22.8543C108.733 21.8706 109.417 21.1095 110.297 20.5708C111.186 20.0322 112.232 19.7629 113.434 19.7629C114.637 19.7629 115.675 20.0244 116.548 20.5474C117.421 21.0705 118.093 21.8043 118.565 22.7489C119.037 23.6935 119.272 24.7942 119.272 26.0511V26.9996H108.976V25.0557H117.857L116.454 26.8707V25.7349C116.454 24.9152 116.324 24.2321 116.065 23.6857C115.813 23.1314 115.463 22.7177 115.015 22.4444C114.567 22.1712 114.052 22.0346 113.47 22.0346C112.88 22.0346 112.357 22.179 111.901 22.4678C111.445 22.7489 111.084 23.1665 110.816 23.7208C110.557 24.2673 110.427 24.9386 110.427 25.7349V26.8825C110.427 27.6475 110.557 28.3033 110.816 28.8497C111.076 29.3884 111.445 29.8021 111.925 30.091C112.405 30.3798 112.975 30.5242 113.635 30.5242C114.138 30.5242 114.575 30.4501 114.944 30.3017C115.322 30.1456 115.628 29.9504 115.864 29.7162C116.1 29.482 116.265 29.24 116.359 28.9902L116.395 28.9083H119.143L119.119 29.0254C119.017 29.486 118.828 29.9387 118.553 30.3837C118.278 30.8287 117.908 31.2346 117.444 31.6015C116.988 31.9684 116.438 32.2612 115.793 32.4798C115.149 32.6905 114.409 32.7959 113.576 32.7959Z" fill="#007F41"/>
<path d="M121.619 32.55V15.3717H124.556V32.55H121.619ZM129.568 32.55L125.334 26.8473L127.316 24.8215L133 32.55H129.568ZM124.179 28.557L124.143 25.1962H124.662L129.368 20.0088H132.753L126.997 26.1447L126.184 26.496L124.179 28.557Z" fill="#007F41"/>
<defs>
<linearGradient id="paint0_linear_2706_13635" x1="17.8833" y1="26.1328" x2="4.07194" y2="25.992" gradientUnits="userSpaceOnUse">
<stop stop-color="#EE7700"/>
<stop offset="0.1" stop-color="#EE7700"/>
<stop offset="0.26" stop-color="#EB7101"/>
<stop offset="0.46" stop-color="#E56006"/>
<stop offset="0.69" stop-color="#DA460E"/>
<stop offset="0.94" stop-color="#CC2019"/>
<stop offset="1" stop-color="#C8161D"/>
</linearGradient>
<linearGradient id="paint1_linear_2706_13635" x1="18.64" y1="12.4342" x2="29.7878" y2="12.5388" gradientUnits="userSpaceOnUse">
<stop stop-color="#23ADE5"/>
<stop offset="0.5" stop-color="#1282C7"/>
<stop offset="1" stop-color="#0054A7"/>
</linearGradient>
<linearGradient id="paint2_linear_2706_13635" x1="20.1389" y1="27.5771" x2="37.608" y2="27.7436" gradientUnits="userSpaceOnUse">
<stop stop-color="#8EC31F"/>
<stop offset="0.14" stop-color="#88C020"/>
<stop offset="0.32" stop-color="#77BA26"/>
<stop offset="0.52" stop-color="#5CB030"/>
<stop offset="0.74" stop-color="#36A13D"/>
<stop offset="0.97" stop-color="#078F4D"/>
<stop offset="1" stop-color="#008D50"/>
</linearGradient>
</defs>
</svg>
