<svg width="52" height="52" viewBox="0 0 52 52" fill="none" xmlns="http://www.w3.org/2000/svg">
<path d="M0 26C0 11.6406 11.6406 0 26 0C40.3594 0 52 11.6406 52 26C52 40.3594 40.3594 52 26 52C11.6406 52 0 40.3594 0 26Z" fill="#EFEFEF"/>
<path d="M32.25 19.75C32.25 23.2018 29.4518 26 26 26C22.5482 26 19.75 23.2018 19.75 19.75C19.75 16.2982 22.5482 13.5 26 13.5C29.4518 13.5 32.25 16.2982 32.25 19.75Z" fill="#D9D9D9"/>
<path d="M37.25 37.2501H14.75V33.5001C14.75 30.0001 20.375 27.875 23.5 27.8751H28.5C32.25 27.875 37.25 30.3746 37.25 33.5001V37.2501Z" fill="#D9D9D9"/>
</svg>
