<svg width="32" height="32" viewBox="0 0 32 32" fill="none" xmlns="http://www.w3.org/2000/svg">
<path d="M16 32C24.8366 32 32 24.8366 32 16C32 7.16344 24.8366 0 16 0C7.16344 0 0 7.16344 0 16C0 24.8366 7.16344 32 16 32Z" fill="#07ae55"/>
<path d="M22.097 12.7629H19.1866V17.7053C19.1866 19.7282 17.5584 21.3668 15.5485 21.3668C13.5386 21.3668 11.9104 19.7282 11.9104 17.7053V9.08206L9 7.29602V17.7029C9 19.0587 9.40583 20.3179 10.1046 21.3644C10.5825 22.0822 11.1972 22.7009 11.9128 23.1843C12.9526 23.8852 14.2037 24.296 15.5509 24.296C16.8981 24.296 18.1492 23.8876 19.189 23.1843C19.9022 22.7033 20.5169 22.0846 20.9972 21.3644C21.6936 20.3179 22.1018 19.0587 22.1018 17.7029V12.7629H22.097Z" fill="white"/>
<path d="M23.5451 24.296C24.3488 24.296 25.0003 23.6403 25.0003 22.8314C25.0003 22.0225 24.3488 21.3668 23.5451 21.3668C22.7414 21.3668 22.0898 22.0225 22.0898 22.8314C22.0898 23.6403 22.7414 24.296 23.5451 24.296Z" fill="white"/>
</svg>
